<svg preserveAspectRatio="none" width="100%" height="100%" overflow="visible" style="display: block;" viewBox="0 0 16 16" fill="none" xmlns="http://www.w3.org/2000/svg">
<g id="iconamoon:comment-light">
<path id="Vector" d="M8 14C9.18669 14 10.3467 13.6481 11.3334 12.9888C12.3201 12.3295 13.0892 11.3925 13.5433 10.2961C13.9974 9.19974 14.1162 7.99334 13.8847 6.82946C13.6532 5.66557 13.0818 4.59647 12.2426 3.75736C11.4035 2.91824 10.3344 2.3468 9.17054 2.11529C8.00666 1.88378 6.80026 2.0026 5.7039 2.45672C4.60754 2.91085 3.67047 3.67988 3.01118 4.66658C2.35189 5.65327 2 6.81331 2 8C2 8.992 2.24 9.92667 2.66667 10.7513L2 14L5.24867 13.3333C6.07267 13.7593 7.00867 14 8 14Z" stroke="var(--stroke-0, #6B7280)" stroke-linecap="round" stroke-linejoin="round"/>
</g>
</svg>
