<svg preserveAspectRatio="none" width="100%" height="100%" overflow="visible" style="display: block;" viewBox="0 0 18.5 18.5" fill="none" xmlns="http://www.w3.org/2000/svg">
<g id="external-link/external-link-circle">
<rect width="18.5" height="18.5" rx="2" fill="var(--fill-0, #F9FAFB)"/>
<g id="vector">
<path d="M13.6606 4.06028C12.6595 3.95711 11.6447 3.98649 10.6423 4.14755C10.4176 4.18365 10.2345 4.34712 10.1731 4.56627C10.1118 4.78541 10.1835 5.02022 10.3568 5.16772L11.1422 5.83618C11.2675 5.94285 11.3909 6.05178 11.5121 6.16292L7.67085 10.0042C7.44305 10.232 7.44305 10.6013 7.67086 10.8291C7.89866 11.057 8.26801 11.057 8.49581 10.8291L12.3371 6.98788C12.4482 7.10913 12.5571 7.23246 12.6638 7.35779L13.3323 8.14322C13.4798 8.31653 13.7146 8.38824 13.9337 8.3269C14.1529 8.26557 14.3163 8.08239 14.3524 7.85771C14.5135 6.8554 14.5428 5.84037 14.4397 4.83935C14.4187 4.63552 14.3281 4.45017 14.1889 4.31093C14.0494 4.17147 13.8642 4.08125 13.6606 4.06028Z" fill="var(--fill-0, #6B7280)"/>
<path d="M8.42447 5.17966C8.74548 5.15234 8.98355 4.86996 8.95623 4.54896C8.92891 4.22795 8.64654 3.98988 8.32553 4.0172C5.90215 4.22346 4 6.25502 4 8.73147V9.24999C4 12.1495 6.35051 14.5 9.25 14.5H9.76853C12.2449 14.5 14.2765 12.5978 14.4828 10.1745C14.5101 9.85346 14.272 9.57108 13.951 9.54376C13.63 9.51644 13.3477 9.75452 13.3203 10.0755C13.165 11.9003 11.6338 13.3333 9.76853 13.3333H9.25C6.99484 13.3333 5.16667 11.5052 5.16667 9.24999V8.73147C5.16667 6.86618 6.59971 5.33497 8.42447 5.17966Z" fill="var(--fill-0, #6B7280)"/>
</g>
</g>
</svg>
