<svg preserveAspectRatio="none" width="100%" height="100%" overflow="visible" style="display: block;" viewBox="0 0 20 20" fill="none" xmlns="http://www.w3.org/2000/svg">
<g id="stash:light-bulb">
<path id="Vector" d="M10 3.125C12.44 3.125 14.375 5.02083 14.375 7.30833C14.375 8.73333 14.0083 9.45917 13.5433 10.1192C13.4378 10.2669 13.3219 10.4225 13.1958 10.5858C12.7592 11.1567 12.2342 11.8442 11.8617 12.835C11.7857 13.0393 11.687 13.2344 11.5675 13.4167L11.5208 13.4833C11.4188 13.6293 11.3015 13.764 11.1708 13.885C10.8325 14.195 10.4258 14.375 10 14.375C9.575 14.375 9.1675 14.195 8.82833 13.885C8.69765 13.7637 8.58031 13.6288 8.47833 13.4825L8.4325 13.4158C8.31307 13.2338 8.2144 13.039 8.13833 12.835C7.76583 11.8433 7.24083 11.1567 6.80417 10.585C6.68533 10.4317 6.56947 10.2761 6.45667 10.1183C5.9925 9.46 5.625 8.73333 5.625 7.3075C5.625 5.02083 7.56083 3.125 10 3.125ZM12.6392 14.0575C12.7992 13.8075 12.9308 13.5433 13.0317 13.2742C13.3333 12.4717 13.7133 11.9725 14.13 11.4267C14.2717 11.2408 14.4175 11.0492 14.5658 10.8383C15.1575 9.99833 15.625 9.02583 15.625 7.3075C15.625 4.28417 13.0833 1.875 10 1.875C6.91667 1.875 4.375 4.28417 4.375 7.30833C4.375 9.025 4.8425 9.99833 5.43417 10.8383C5.5825 11.0492 5.72833 11.2408 5.87 11.4267C6.28667 11.9725 6.66667 12.4717 6.96833 13.2742C7.06917 13.5433 7.20167 13.8075 7.36083 14.0575L7.54583 15.9042C7.60729 16.5123 7.89237 17.076 8.34581 17.4859C8.79925 17.8959 9.38874 18.1228 10 18.1228C10.6113 18.1228 11.2008 17.8959 11.6542 17.4859C12.1076 17.076 12.3927 16.5123 12.4542 15.9042L12.6392 14.0575ZM11.2558 15.3325L11.2108 15.7792C11.1813 16.0798 11.041 16.3587 10.8172 16.5616C10.5934 16.7645 10.3021 16.8768 10 16.8768C9.69792 16.8768 9.40664 16.7645 9.18284 16.5616C8.95904 16.3587 8.81871 16.0798 8.78917 15.7792L8.745 15.3325C9.12 15.5175 9.54083 15.625 10 15.625C10.4583 15.625 10.88 15.5167 11.255 15.3325M2.01917 2.51583C2.1254 2.38869 2.27777 2.30894 2.44278 2.29409C2.60779 2.27925 2.77195 2.33053 2.89917 2.43667L4.14917 3.47833C4.27197 3.58577 4.34789 3.73696 4.36071 3.89962C4.37353 4.06228 4.32224 4.2235 4.21778 4.34885C4.11333 4.47419 3.964 4.55372 3.80169 4.57044C3.63939 4.58716 3.47698 4.53975 3.34917 4.43833L2.09917 3.39667C1.9719 3.29055 1.89199 3.13825 1.87699 2.97323C1.86199 2.80821 1.91313 2.64316 2.01917 2.51583ZM17.9792 2.51667C18.0318 2.57973 18.0715 2.65256 18.096 2.73097C18.1204 2.80939 18.1292 2.89186 18.1218 2.97367C18.1143 3.05548 18.0908 3.13502 18.0527 3.20774C18.0145 3.28047 17.9623 3.34495 17.8992 3.3975L16.6492 4.43917C16.5864 4.49404 16.5134 4.53581 16.4343 4.56203C16.3552 4.58825 16.2716 4.59839 16.1885 4.59184C16.1055 4.58529 16.0245 4.56219 15.9505 4.5239C15.8765 4.48561 15.8109 4.43291 15.7575 4.36888C15.7042 4.30486 15.6641 4.23082 15.6398 4.1511C15.6155 4.07139 15.6074 3.98762 15.6159 3.90472C15.6245 3.82182 15.6495 3.74146 15.6896 3.66838C15.7296 3.5953 15.7839 3.53097 15.8492 3.47917L17.0992 2.4375C17.2265 2.33146 17.3907 2.28032 17.5557 2.29532C17.7207 2.31032 17.8731 2.3894 17.9792 2.51667ZM1.04167 6.875C1.04167 6.70924 1.10751 6.55027 1.22472 6.43306C1.34194 6.31585 1.50091 6.25 1.66667 6.25H3.33333C3.49909 6.25 3.65806 6.31585 3.77528 6.43306C3.89249 6.55027 3.95833 6.70924 3.95833 6.875C3.95833 7.04076 3.89249 7.19973 3.77528 7.31694C3.65806 7.43415 3.49909 7.5 3.33333 7.5H1.66667C1.50091 7.5 1.34194 7.43415 1.22472 7.31694C1.10751 7.19973 1.04167 7.04076 1.04167 6.875ZM16.0417 6.875C16.0417 6.70924 16.1075 6.55027 16.2247 6.43306C16.3419 6.31585 16.5009 6.25 16.6667 6.25H18.3333C18.4991 6.25 18.6581 6.31585 18.7753 6.43306C18.8925 6.55027 18.9583 6.70924 18.9583 6.875C18.9583 7.04076 18.8925 7.19973 18.7753 7.31694C18.6581 7.43415 18.4991 7.5 18.3333 7.5H16.6667C16.5009 7.5 16.3419 7.43415 16.2247 7.31694C16.1075 7.19973 16.0417 7.04076 16.0417 6.875ZM4.30833 9.92917C4.38243 10.0774 4.39464 10.2489 4.34229 10.4061C4.28994 10.5633 4.17732 10.6933 4.02917 10.7675L2.77917 11.3925C2.70566 11.4299 2.62547 11.4524 2.54322 11.4587C2.46098 11.465 2.3783 11.4549 2.29996 11.4291C2.22162 11.4033 2.14917 11.3622 2.08679 11.3082C2.0244 11.2543 1.97331 11.1885 1.93647 11.1147C1.89962 11.0409 1.87775 10.9605 1.87211 10.8782C1.86648 10.7959 1.87718 10.7133 1.90362 10.6352C1.93005 10.5571 1.97169 10.4849 2.02614 10.423C2.08058 10.361 2.14675 10.3104 2.22083 10.2742L3.47083 9.64917C3.61913 9.57513 3.79077 9.56304 3.94799 9.61555C4.1052 9.66806 4.23429 9.78087 4.30833 9.92917ZM15.6925 9.92917C15.7665 9.78109 15.8963 9.66844 16.0533 9.61594C16.2104 9.56345 16.3818 9.5754 16.53 9.64917L17.78 10.2742C17.8541 10.3104 17.9203 10.361 17.9747 10.423C18.0291 10.4849 18.0708 10.5571 18.0972 10.6352C18.1237 10.7133 18.1344 10.7959 18.1287 10.8782C18.1231 10.9605 18.1012 11.0409 18.0644 11.1147C18.0275 11.1885 17.9764 11.2543 17.914 11.3082C17.8517 11.3622 17.7792 11.4033 17.7009 11.4291C17.6225 11.4549 17.5399 11.465 17.4576 11.4587C17.3754 11.4524 17.2952 11.4299 17.2217 11.3925L15.9717 10.7675C15.8234 10.6935 15.7106 10.5635 15.658 10.4063C15.6055 10.2491 15.6185 10.0775 15.6925 9.92917Z" fill="var(--fill-0, #6B7280)"/>
</g>
</svg>
