<svg preserveAspectRatio="none" width="100%" height="100%" overflow="visible" style="display: block;" viewBox="0 0 20 20" fill="none" xmlns="http://www.w3.org/2000/svg">
<g id="solar:pen-2-outline">
<path id="Vector" fill-rule="evenodd" clip-rule="evenodd" d="M11.75 1.9925C12.361 1.39375 13.1835 1.06033 14.039 1.06469C14.8944 1.06904 15.7136 1.41084 16.3184 2.01578C16.9232 2.62072 17.2649 3.43993 17.2691 4.29536C17.2733 5.15079 16.9397 5.97331 16.3408 6.58417L10.0125 12.9125C9.65583 13.2692 9.4375 13.4875 9.19583 13.6767C8.90964 13.8996 8.60004 14.0907 8.2725 14.2467C7.99417 14.3792 7.70167 14.4767 7.22333 14.6358L4.99667 15.3783L4.46167 15.5567C4.22696 15.6351 3.97505 15.6465 3.73419 15.5898C3.49334 15.533 3.27306 15.4102 3.09809 15.2352C2.92311 15.0603 2.80034 14.84 2.74357 14.5991C2.6868 14.3583 2.69826 14.1064 2.77667 13.8717L3.6975 11.11C3.85667 10.6317 3.95417 10.3392 4.08667 10.0608C4.24292 9.73354 4.43433 9.42422 4.6575 9.13833C4.84667 8.89583 5.06417 8.6775 5.42083 8.32167L11.75 1.9925ZM4.96667 14.0708L4.26333 13.3658L4.87 11.545C5.04667 11.015 5.12 10.7992 5.215 10.5992C5.33278 10.3531 5.47528 10.1225 5.6425 9.9075C5.77917 9.7325 5.93917 9.57083 6.33417 9.175L11.2433 4.26667C11.4984 4.90395 11.881 5.48244 12.3675 5.96667C12.8518 6.45291 13.4303 6.83516 14.0675 7.09L9.15833 11.9983C8.7625 12.3942 8.60167 12.5542 8.42667 12.69C8.21111 12.8578 7.98056 13.0006 7.735 13.1183C7.535 13.2133 7.31833 13.2867 6.78833 13.4633L4.96667 14.0708ZM15.0633 6.09333C14.9349 6.06501 14.8083 6.02911 14.6842 5.98583C14.1437 5.79801 13.6534 5.48901 13.2508 5.0825C12.8452 4.67915 12.5364 4.18909 12.3475 3.64917C12.3039 3.52503 12.2678 3.39842 12.2392 3.27L12.6333 2.87667C13.0098 2.51235 13.5144 2.31059 14.0382 2.31489C14.5621 2.31918 15.0633 2.52919 15.4337 2.89963C15.8041 3.27007 16.0141 3.77125 16.0184 4.29511C16.0227 4.81897 15.821 5.32354 15.4567 5.7L15.0633 6.09333ZM2.70833 18.3333C2.70833 18.1676 2.77418 18.0086 2.89139 17.8914C3.0086 17.7742 3.16757 17.7083 3.33333 17.7083H16.6667V18.9583H3.33333C3.16757 18.9583 3.0086 18.8925 2.89139 18.7753C2.77418 18.6581 2.70833 18.4991 2.70833 18.3333Z" fill="var(--fill-0, #6B7280)"/>
</g>
</svg>
