<svg preserveAspectRatio="none" width="100%" height="100%" overflow="visible" style="display: block;" viewBox="0 0 15 15" fill="none" xmlns="http://www.w3.org/2000/svg">
<g id="Group">
<path id="Vector" d="M0.833333 12.5C0.833333 11.6159 1.18452 10.7681 1.80964 10.143C2.43477 9.51786 3.28261 9.16667 4.16667 9.16667H10.8333C11.7174 9.16667 12.5652 9.51786 13.1904 10.143C13.8155 10.7681 14.1667 11.6159 14.1667 12.5C14.1667 12.942 13.9911 13.366 13.6785 13.6785C13.366 13.9911 12.942 14.1667 12.5 14.1667H2.5C2.05797 14.1667 1.63405 13.9911 1.32149 13.6785C1.00893 13.366 0.833333 12.942 0.833333 12.5Z" stroke="var(--stroke-0, #6B7280)" stroke-width="1.66667" stroke-linejoin="round"/>
<path id="Vector_2" d="M7.5 5.83333C8.88071 5.83333 10 4.71405 10 3.33333C10 1.95262 8.88071 0.833333 7.5 0.833333C6.11929 0.833333 5 1.95262 5 3.33333C5 4.71405 6.11929 5.83333 7.5 5.83333Z" stroke="var(--stroke-0, #6B7280)" stroke-width="1.66667"/>
</g>
</svg>
