<svg preserveAspectRatio="none" width="100%" height="100%" overflow="visible" style="display: block;" viewBox="0 0 20 20" fill="none" xmlns="http://www.w3.org/2000/svg">
<g id="mdi:recent">
<path id="Vector" d="M11.25 6.66667H10V10.8333L13.5667 12.95L14.1667 11.9417L11.25 10.2083V6.66667ZM10.8333 2.5C8.84421 2.5 6.93655 3.29018 5.53003 4.6967C4.12351 6.10322 3.33333 8.01088 3.33333 10H0.833333L4.13333 13.3583L7.5 10H5C5 8.4529 5.61458 6.96917 6.70854 5.87521C7.80251 4.78125 9.28624 4.16667 10.8333 4.16667C12.3804 4.16667 13.8642 4.78125 14.9581 5.87521C16.0521 6.96917 16.6667 8.4529 16.6667 10C16.6667 11.5471 16.0521 13.0308 14.9581 14.1248C13.8642 15.2188 12.3804 15.8333 10.8333 15.8333C9.225 15.8333 7.76667 15.175 6.71667 14.1167L5.53333 15.3C6.22634 16.0004 7.05195 16.5556 7.96194 16.9334C8.87193 17.3111 9.84807 17.5037 10.8333 17.5C12.8225 17.5 14.7301 16.7098 16.1366 15.3033C17.5432 13.8968 18.3333 11.9891 18.3333 10C18.3333 8.01088 17.5432 6.10322 16.1366 4.6967C14.7301 3.29018 12.8225 2.5 10.8333 2.5Z" fill="var(--fill-0, #4B5563)"/>
</g>
</svg>
