<svg preserveAspectRatio="none" width="100%" height="100%" overflow="visible" style="display: block;" viewBox="0 0 16 16" fill="none" xmlns="http://www.w3.org/2000/svg">
<g id="logos:reddit-icon" clip-path="url(#clip0_0_31)">
<path id="Vector" d="M8 16C12.4183 16 16 12.4183 16 8C16 3.58172 12.4183 0 8 0C3.58172 0 0 3.58172 0 8C0 12.4183 3.58172 16 8 16Z" fill="var(--fill-0, #FF4500)"/>
<path id="Vector_2" d="M13.3219 8.07625C13.3219 7.42775 12.7974 6.91269 12.1583 6.91269C11.8564 6.91228 11.566 7.02846 11.3477 7.237C10.5466 6.66469 9.44969 6.29281 8.22894 6.24512L8.76294 3.74631L10.4987 4.11819C10.5179 4.55694 10.8802 4.90987 11.3286 4.90987C11.7864 4.90987 12.1583 4.538 12.1583 4.08C12.1583 3.62225 11.7864 3.25031 11.3286 3.25031C11.0044 3.25031 10.7181 3.44106 10.5846 3.71769L8.64863 3.30756C8.59138 3.29794 8.53412 3.30756 8.49594 3.33619C8.44825 3.36481 8.41969 3.41244 8.41025 3.46969L7.81875 6.25456C6.57894 6.29281 5.463 6.66469 4.65238 7.24656C4.43404 7.03803 4.14361 6.92187 3.84169 6.92231C3.19312 6.92231 2.67812 7.44675 2.67812 8.08587C2.67812 8.56269 2.96419 8.96319 3.36488 9.14456C3.34542 9.26117 3.33584 9.37922 3.33625 9.49744C3.33625 11.2903 5.425 12.7497 8.00006 12.7497C10.5752 12.7497 12.6639 11.2999 12.6639 9.49744C12.6639 9.37923 12.6544 9.26122 12.6353 9.14456C13.0358 8.96319 13.3219 8.55306 13.3219 8.07625ZM5.3295 8.90594C5.3295 8.44819 5.70138 8.07625 6.15938 8.07625C6.61713 8.07625 6.98906 8.44812 6.98906 8.90594C6.98906 9.36375 6.61719 9.73581 6.15938 9.73581C5.70144 9.74519 5.3295 9.36375 5.3295 8.90594ZM9.97431 11.1091C9.40206 11.6814 8.31475 11.7196 8.00006 11.7196C7.67581 11.7196 6.58856 11.6718 6.02569 11.1091C5.94 11.0233 5.94 10.8898 6.02569 10.8039C6.11156 10.7183 6.24506 10.7183 6.33094 10.8039C6.69344 11.1664 7.45644 11.2903 8.00006 11.2903C8.54369 11.2903 9.31619 11.1664 9.66906 10.8039C9.75494 10.7183 9.88844 10.7183 9.97431 10.8039C10.0506 10.8898 10.0506 11.0233 9.97431 11.1091ZM9.82162 9.74525C9.36381 9.74525 8.99194 9.37337 8.99194 8.91556C8.99194 8.45775 9.36381 8.08587 9.82162 8.08587C10.2796 8.08587 10.6514 8.45775 10.6514 8.91556C10.6514 9.36369 10.2796 9.74525 9.82162 9.74525Z" fill="var(--fill-0, white)"/>
</g>
<defs>
<clipPath id="clip0_0_31">
<rect width="16" height="16" fill="white"/>
</clipPath>
</defs>
</svg>
