<svg preserveAspectRatio="none" width="100%" height="100%" overflow="visible" style="display: block;" viewBox="0 0 20 20" fill="none" xmlns="http://www.w3.org/2000/svg">
<g id="sidebar/sidebar-left-close">
<path id="vector" d="M7.50005 17.4908C7.9809 17.5 8.53044 17.5 9.16671 17.5H10.8334C13.1669 17.5 14.3337 17.5 15.225 17.0459C16.009 16.6464 16.6464 16.009 17.0459 15.225C17.5 14.3337 17.5 13.1669 17.5 10.8333V9.16667C17.5 6.83311 17.5 5.66634 17.0459 4.77504C16.6464 3.99103 16.009 3.35361 15.225 2.95414C14.3337 2.5 13.1669 2.5 10.8334 2.5H9.16671C8.53044 2.5 7.9809 2.5 7.50005 2.50921M7.50005 17.4908C6.21737 17.4662 5.42336 17.3762 4.77509 17.0459C3.99108 16.6464 3.35366 16.009 2.95419 15.225C2.50005 14.3337 2.50005 13.1669 2.50005 10.8333V9.16667C2.50005 6.83312 2.50005 5.66634 2.95419 4.77504C3.35366 3.99103 3.99108 3.35361 4.77509 2.95414C5.42336 2.62383 6.21737 2.53376 7.50005 2.50921M7.50005 17.4908L7.50005 2.50921M13.75 7.5C12.8364 8.16379 12.018 8.94192 11.3162 9.81383C11.228 9.92336 11.228 10.0766 11.3162 10.1862C12.018 11.0581 12.8364 11.8362 13.75 12.5" stroke="var(--stroke-0, #6B7280)" stroke-width="1.35" stroke-linecap="round" stroke-linejoin="round"/>
</g>
</svg>
