<svg preserveAspectRatio="none" width="100%" height="100%" overflow="visible" style="display: block;" viewBox="0 0 20 20" fill="none" xmlns="http://www.w3.org/2000/svg">
<g id="lineicons:trend-up-1">
<path id="Vector" d="M3.95833 3.33333C3.95833 3.16757 3.89249 3.0086 3.77528 2.89139C3.65807 2.77418 3.49909 2.70833 3.33333 2.70833C3.16757 2.70833 3.0086 2.77418 2.89139 2.89139C2.77418 3.0086 2.70833 3.16757 2.70833 3.33333V15.4167C2.70833 15.9139 2.90588 16.3909 3.25751 16.7425C3.60914 17.0941 4.08605 17.2917 4.58333 17.2917H16.6667C16.8324 17.2917 16.9914 17.2258 17.1086 17.1086C17.2258 16.9914 17.2917 16.8324 17.2917 16.6667C17.2917 16.5009 17.2258 16.3419 17.1086 16.2247C16.9914 16.1075 16.8324 16.0417 16.6667 16.0417H4.58333C4.41757 16.0417 4.2586 15.9758 4.14139 15.8586C4.02418 15.7414 3.95833 15.5824 3.95833 15.4167V13.1083L7.66667 9.4L10.5183 12.2525C10.6355 12.3695 10.7944 12.4353 10.96 12.4353C11.1256 12.4353 11.2845 12.3695 11.4017 12.2525L14.9975 8.65667V10.0975C14.9975 10.2633 15.0633 10.4222 15.1806 10.5394C15.2978 10.6567 15.4567 10.7225 15.6225 10.7225C15.7883 10.7225 15.9472 10.6567 16.0644 10.5394C16.1817 10.4222 16.2475 10.2633 16.2475 10.0975V7.15C16.2475 6.98424 16.1817 6.82527 16.0644 6.70806C15.9472 6.59085 15.7883 6.525 15.6225 6.525H12.6758C12.5101 6.525 12.3511 6.59085 12.2339 6.70806C12.1167 6.82527 12.0508 6.98424 12.0508 7.15C12.0508 7.31576 12.1167 7.47473 12.2339 7.59194C12.3511 7.70915 12.5101 7.775 12.6758 7.775H14.1108L10.9608 10.925L8.10833 8.075C7.99115 7.95796 7.83229 7.89222 7.66667 7.89222C7.50104 7.89222 7.34219 7.95796 7.225 8.075L3.95833 11.3417V3.33333Z" fill="var(--fill-0, #6B7280)"/>
</g>
</svg>
