<svg preserveAspectRatio="none" width="100%" height="100%" overflow="visible" style="display: block;" viewBox="0 0 22.76 22.76" fill="none" xmlns="http://www.w3.org/2000/svg">
<g id="logos:youtube-icon" clip-path="url(#clip0_0_4)">
<path id="Vector" d="M22.2549 5.49556C22.1244 5.01321 21.8698 4.57346 21.5165 4.22011C21.1632 3.86677 20.7234 3.61214 20.2411 3.4816C18.4752 3 11.3682 3 11.3682 3C11.3682 3 4.26081 3.01458 2.49495 3.49618C2.01259 3.62673 1.57285 3.88137 1.21952 4.23473C0.866187 4.58809 0.61159 5.02786 0.481081 5.51022C-0.053052 8.64782 -0.260252 13.4288 0.495748 16.4409C0.62627 16.9232 0.880874 17.363 1.23421 17.7163C1.58754 18.0697 2.02727 18.3243 2.50961 18.4548C4.27548 18.9364 11.3827 18.9364 11.3827 18.9364C11.3827 18.9364 18.4898 18.9364 20.2556 18.4548C20.7379 18.3243 21.1777 18.0697 21.531 17.7163C21.8844 17.363 22.139 16.9233 22.2695 16.4409C22.8329 13.2988 23.0065 8.5208 22.2549 5.49556Z" fill="var(--fill-0, #FF0000)"/>
<path id="Vector_2" d="M9.10645 14.3831L15.0023 10.9682L9.10645 7.55322V14.3831Z" fill="var(--fill-0, white)"/>
</g>
<defs>
<clipPath id="clip0_0_4">
<rect width="22.76" height="22.76" fill="white"/>
</clipPath>
</defs>
</svg>
